<svg width="32" height="32" viewBox="0 0 32 32" fill="none" xmlns="http://www.w3.org/2000/svg">
<path fill-rule="evenodd" clip-rule="evenodd" d="M20 16C20 13.5147 22.0147 11.5 24.5 11.5C26.9853 11.5 29 13.5147 29 16C29 18.4853 26.9853 20.5 24.5 20.5C22.0147 20.5 20 18.4853 20 16ZM26.75 16L23.375 18.25V13.75L26.75 16Z" fill="#2D2D2D"/>
<path fill-rule="evenodd" clip-rule="evenodd" d="M12 16C12 13.5147 9.98528 11.5 7.5 11.5C5.01472 11.5 3 13.5147 3 16C3 18.4853 5.01472 20.5 7.5 20.5C9.98528 20.5 12 18.4853 12 16ZM5.25 16L8.625 18.25V13.75L5.25 16Z" fill="#2D2D2D"/>
<path fill-rule="evenodd" clip-rule="evenodd" d="M16 12C18.4853 12 20.5 9.98528 20.5 7.5C20.5 5.01472 18.4853 3 16 3C13.5147 3 11.5 5.01472 11.5 7.5C11.5 9.98528 13.5147 12 16 12ZM16 5.25L13.75 8.625H18.25L16 5.25Z" fill="#2D2D2D"/>
<path fill-rule="evenodd" clip-rule="evenodd" d="M16 20C18.4853 20 20.5 22.0147 20.5 24.5C20.5 26.9853 18.4853 29 16 29C13.5147 29 11.5 26.9853 11.5 24.5C11.5 22.0147 13.5147 20 16 20ZM16 26.75L13.75 23.375H18.25L16 26.75Z" fill="#2D2D2D"/>
</svg>
