<svg width="32" height="32" viewBox="0 0 32 32" fill="none" xmlns="http://www.w3.org/2000/svg">
<path fill-rule="evenodd" clip-rule="evenodd" d="M16 28C22.6274 28 28 22.6274 28 16C28 9.37258 22.6274 4 16 4C9.37258 4 4 9.37258 4 16C4 22.6274 9.37258 28 16 28ZM12 10V21.6364H16.7102C17.6004 21.6364 18.339 21.4981 18.9261 21.2216C19.5133 20.9451 19.9527 20.5682 20.2443 20.0909C20.536 19.6098 20.6818 19.0682 20.6818 18.4659C20.6818 17.875 20.5606 17.3712 20.3182 16.9545C20.0758 16.5379 19.7633 16.2159 19.3807 15.9886C19.0019 15.7576 18.6061 15.6307 18.1932 15.608V15.4943C18.572 15.4034 18.9148 15.2538 19.2216 15.0455C19.5284 14.8371 19.7727 14.5663 19.9545 14.233C20.1364 13.8958 20.2273 13.4905 20.2273 13.017C20.2273 12.4413 20.0871 11.9261 19.8068 11.4716C19.5303 11.017 19.1117 10.6591 18.5511 10.3977C17.9943 10.1326 17.2955 10 16.4545 10H12ZM16.375 19.875H14.108V16.4659H16.4318C16.8674 16.4659 17.2424 16.5473 17.5568 16.7102C17.8712 16.8693 18.1136 17.089 18.2841 17.3693C18.4545 17.6458 18.5398 17.9564 18.5398 18.3011C18.5398 18.7633 18.3693 19.142 18.0284 19.4375C17.6913 19.7292 17.1402 19.875 16.375 19.875ZM16.1932 14.9489H14.108V11.7386H16.2386C16.8598 11.7386 17.3277 11.8845 17.642 12.1761C17.9602 12.4678 18.1193 12.839 18.1193 13.2898C18.1193 13.6307 18.0341 13.9261 17.8636 14.1761C17.697 14.4223 17.4678 14.6136 17.1761 14.75C16.8845 14.8826 16.5568 14.9489 16.1932 14.9489Z" fill="#EBEBEB"/>
</svg>
