<svg width="32" height="32" viewBox="0 0 32 32" fill="none" xmlns="http://www.w3.org/2000/svg">
<path fill-rule="evenodd" clip-rule="evenodd" d="M16 12C18.4853 12 20.5 9.98528 20.5 7.5C20.5 5.01472 18.4853 3 16 3C13.5147 3 11.5 5.01472 11.5 7.5C11.5 9.98528 13.5147 12 16 12ZM16 5L13.5833 8.625H18.4167L16 5Z" fill="#EBEBEB"/>
<circle cx="8" cy="16" r="4" fill="#EBEBEB"/>
<circle cx="24" cy="16" r="4" fill="#EBEBEB"/>
<path fill-rule="evenodd" clip-rule="evenodd" d="M16 20C18.4853 20 20.5 22.0147 20.5 24.5C20.5 26.9853 18.4853 29 16 29C13.5147 29 11.5 26.9853 11.5 24.5C11.5 22.0147 13.5147 20 16 20ZM16 27L13.5833 23.375H18.4167L16 27Z" fill="#EBEBEB"/>
</svg>
