<svg width="32" height="32" viewBox="0 0 32 32" fill="none" xmlns="http://www.w3.org/2000/svg">
<path fill-rule="evenodd" clip-rule="evenodd" d="M17 6.04932C21.7244 6.51838 25.4816 10.2755 25.9506 14.9999H27.9589C27.478 9.17014 22.8298 4.52196 17 4.04102V6.04932ZM15 4.04102C9.1702 4.52197 4.52202 9.17015 4.04108 14.9999H6.04938C6.51845 10.2755 10.2756 6.51839 15 6.04932V4.04102ZM25.9506 16.9999H27.9589C27.478 22.8297 22.8298 27.4779 17 27.9589V25.9506C21.7244 25.4815 25.4816 21.7244 25.9506 16.9999ZM15 25.9506V27.9589C9.1702 27.4779 4.52203 22.8297 4.04108 16.9999H6.04938C6.51845 21.7244 10.2756 25.4815 15 25.9506ZM16 23.9999C20.4183 23.9999 24 20.4182 24 15.9999C24 11.5817 20.4183 7.99994 16 7.99994C11.5817 7.99994 8 11.5817 8 15.9999C8 20.4182 11.5817 23.9999 16 23.9999ZM13.5 11.4999V20.5H19.2612V18.9311H15.4028V11.4999H13.5Z" fill="#EBEBEB"/>
</svg>
