<svg width="32" height="32" viewBox="0 0 32 32" fill="none" xmlns="http://www.w3.org/2000/svg">
<path fill-rule="evenodd" clip-rule="evenodd" d="M19 4C19.5523 4 20 4.44772 20 5V11C20 11.5523 20.4477 12 21 12H27C27.5523 12 28 12.4477 28 13V19C28 19.5523 27.5523 20 27 20H21C20.4477 20 20 20.4477 20 21V27C20 27.5523 19.5523 28 19 28H13C12.4477 28 12 27.5523 12 27V21C12 20.4477 11.5523 20 11 20H5C4.44772 20 4 19.5523 4 19V13C4 12.4477 4.44772 12 5 12H11C11.5523 12 12 11.5523 12 11V5C12 4.44772 12.4477 4 13 4H19ZM16 26.5L13.6666 23H18.3333L16 26.5Z" fill="#EBEBEB"/>
</svg>
