<svg width="32" height="32" viewBox="0 0 32 32" fill="none" xmlns="http://www.w3.org/2000/svg">
<path fill-rule="evenodd" clip-rule="evenodd" d="M22.0417 5.62964L20.4516 7.04305C23.4575 8.53988 25.6037 11.5053 25.9506 15H27.9589C27.6287 10.9975 25.3342 7.552 22.0417 5.62964ZM16 11L13.1941 8.50591C10.1599 9.64248 8 12.569 8 16C8 20.4183 11.5817 24 16 24C20.4183 24 24 20.4183 24 16C24 12.569 21.8401 9.64248 18.8059 8.50591L16 11ZM11.5484 7.04305L9.95832 5.62964C6.66576 7.552 4.37128 10.9975 4.04108 15H6.04938C6.39635 11.5053 8.54248 8.53988 11.5484 7.04305ZM27.9589 17H25.9506C25.4816 21.7244 21.7244 25.4816 17 25.9507V27.959C22.8298 27.478 27.478 22.8298 27.9589 17ZM15 27.959V25.9507C10.2756 25.4816 6.51845 21.7244 6.04938 17H4.04108C4.52203 22.8298 9.1702 27.478 15 27.959ZM12.7 11.4V20.7827H14.6837V17.4566H16.1318L17.909 20.7827H20.0989L18.1082 17.1376C18.1368 17.1252 18.1651 17.1124 18.1931 17.0993C18.7031 16.8611 19.0926 16.519 19.3613 16.0731C19.6301 15.6241 19.7645 15.0881 19.7645 14.465C19.7645 13.845 19.6316 13.3059 19.3659 12.8478C19.1032 12.3866 18.7199 12.0308 18.216 11.7803C17.7151 11.5268 17.1103 11.4 16.4018 11.4H12.7ZM14.6837 15.8623H16.0307C16.4094 15.8623 16.724 15.8104 16.9744 15.7065C17.2249 15.6027 17.4112 15.4469 17.5334 15.2392C17.6586 15.0316 17.7212 14.7735 17.7212 14.465C17.7212 14.1535 17.6586 13.8908 17.5334 13.677C17.4112 13.4632 17.2233 13.3013 16.9698 13.1914C16.7194 13.0784 16.4033 13.0219 16.0215 13.0219H14.6837V15.8623Z" fill="#EBEBEB"/>
</svg>
