<svg width="32" height="32" viewBox="0 0 32 32" fill="none" xmlns="http://www.w3.org/2000/svg">
<path fill-rule="evenodd" clip-rule="evenodd" d="M22 7C25.3137 7 28 9.68629 28 13V19C28 22.3137 25.3137 25 22 25H4V7H22ZM12.5739 12.1989C12.9678 12.4754 13.1913 12.8617 13.2443 13.358H15.2727C15.2614 12.7027 15.0777 12.1231 14.7216 11.6193C14.3655 11.1117 13.875 10.7159 13.25 10.4318C12.6288 10.1439 11.9053 10 11.0795 10C10.2652 10 9.53598 10.1439 8.89205 10.4318C8.24811 10.7159 7.73864 11.1155 7.36364 11.6307C6.99242 12.1458 6.80682 12.7462 6.80682 13.4318C6.80682 14.2652 7.08333 14.9337 7.63636 15.4375C8.19318 15.9375 8.95076 16.3106 9.90909 16.5568L11.233 16.8977C11.6496 17.0038 12.0133 17.125 12.3239 17.2614C12.6383 17.3939 12.8826 17.5606 13.0568 17.7614C13.2311 17.9583 13.3201 18.2083 13.3239 18.5114C13.3201 18.8447 13.2197 19.1364 13.0227 19.3864C12.8258 19.6326 12.553 19.8258 12.2045 19.9659C11.8598 20.1023 11.4583 20.1705 11 20.1705C10.5606 20.1705 10.1629 20.1042 9.80682 19.9716C9.45455 19.839 9.16856 19.6383 8.94886 19.3693C8.72917 19.1004 8.60417 18.7633 8.57386 18.358H6.5C6.5303 19.1307 6.73106 19.786 7.10227 20.3239C7.47727 20.8617 7.99621 21.2708 8.65909 21.5511C9.32576 21.8314 10.1117 21.9716 11.017 21.9716C11.9489 21.9716 12.7424 21.8277 13.3977 21.5398C14.0568 21.2481 14.5606 20.8447 14.9091 20.3295C15.2576 19.8106 15.4318 19.2102 15.4318 18.5284C15.4318 18.0246 15.3371 17.5852 15.1477 17.2102C14.9583 16.8352 14.7008 16.5152 14.375 16.25C14.053 15.9848 13.6875 15.7652 13.2784 15.5909C12.8731 15.4167 12.4508 15.2784 12.0114 15.1761L10.9205 14.9034C10.6818 14.8466 10.4451 14.7765 10.2102 14.6932C9.97538 14.6098 9.76136 14.5076 9.56818 14.3864C9.375 14.2614 9.22159 14.1098 9.10795 13.9318C8.99811 13.7538 8.94318 13.5436 8.94318 13.3011C8.94697 13.0095 9.0322 12.75 9.19886 12.5227C9.36553 12.2955 9.60606 12.1155 9.92045 11.983C10.2348 11.8504 10.6117 11.7841 11.0511 11.7841C11.6761 11.7841 12.1837 11.9223 12.5739 12.1989ZM17.3683 11.6136V21.7955H19.521V18.1861H21.0924L23.021 21.7955H25.3974L23.2371 17.8399C23.2682 17.8264 23.2989 17.8126 23.3292 17.7983C23.8827 17.5398 24.3053 17.1686 24.597 16.6847C24.8887 16.1974 25.0345 15.6158 25.0345 14.9396C25.0345 14.2668 24.8903 13.6818 24.602 13.1847C24.3169 12.6842 23.901 12.2981 23.3541 12.0263C22.8105 11.7512 22.1543 11.6136 21.3853 11.6136H17.3683ZM19.521 16.456H20.9826C21.3936 16.456 21.735 16.3996 22.0068 16.2869C22.2786 16.1742 22.4807 16.0052 22.6133 15.7798C22.7492 15.5545 22.8172 15.2744 22.8172 14.9396C22.8172 14.6016 22.7492 14.3165 22.6133 14.0845C22.4807 13.8525 22.2769 13.6768 22.0018 13.5575C21.73 13.4349 21.387 13.3736 20.9727 13.3736H19.521V16.456Z" fill="#EBEBEB"/>
</svg>
