<svg width="64" height="64" viewBox="0 0 64 64" fill="none" xmlns="http://www.w3.org/2000/svg">
<path fill-rule="evenodd" clip-rule="evenodd" d="M18.8821 27.0981L13 31.9999L18.8821 36.9017C18.3118 35.3761 18 33.7244 18 31.9999C18 30.2754 18.3118 28.6237 18.8821 27.0981Z" fill="#EBEBEB"/>
<path fill-rule="evenodd" clip-rule="evenodd" d="M27.0982 45.1179L32 51L36.9018 45.1179C35.3762 45.6882 33.7245 46 32 46C30.2755 46 28.6238 45.6882 27.0982 45.1179Z" fill="#EBEBEB"/>
<path fill-rule="evenodd" clip-rule="evenodd" d="M45.1179 36.9017C45.6882 35.3761 46 33.7244 46 31.9999C46 30.2754 45.6882 28.6237 45.1179 27.0981L51 31.9999L45.1179 36.9017Z" fill="#EBEBEB"/>
<path fill-rule="evenodd" clip-rule="evenodd" d="M27.0982 18.8821C28.6238 18.3118 30.2755 18 32 18C33.7245 18 35.3762 18.3118 36.9017 18.8821L32 13L27.0982 18.8821Z" fill="#EBEBEB"/>
</svg>
