<svg width="32" height="32" viewBox="0 0 32 32" fill="none" xmlns="http://www.w3.org/2000/svg">
<mask id="path-1-inside-1_78_19677" fill="white">
<path fill-rule="evenodd" clip-rule="evenodd" d="M20 5C20 4.44772 19.5523 4 19 4H13C12.4477 4 12 4.44772 12 5V11C12 11.5523 11.5523 12 11 12H5C4.44772 12 4 12.4477 4 13V19C4 19.5523 4.44772 20 5 20H11C11.5523 20 12 20.4477 12 21V27C12 27.5523 12.4477 28 13 28H19C19.5523 28 20 27.5523 20 27V21C20 20.4477 20.4477 20 21 20H27C27.5523 20 28 19.5523 28 19V13C28 12.4477 27.5523 12 27 12H21C20.4477 12 20 11.5523 20 11V5Z"/>
</mask>
<path d="M13 5H19V3H13V5ZM13 11V5H11V11H13ZM5 13H11V11H5V13ZM5 19V13H3V19H5ZM11 19H5V21H11V19ZM13 27V21H11V27H13ZM19 27H13V29H19V27ZM19 21V27H21V21H19ZM27 19H21V21H27V19ZM27 13V19H29V13H27ZM21 13H27V11H21V13ZM19 5V11H21V5H19ZM21 11H21H19C19 12.1046 19.8954 13 21 13V11ZM29 13C29 11.8954 28.1046 11 27 11V13H29ZM27 21C28.1046 21 29 20.1046 29 19H27H27V21ZM21 21V21V19C19.8954 19 19 19.8954 19 21H21ZM19 29C20.1046 29 21 28.1046 21 27H19V29ZM11 27C11 28.1046 11.8954 29 13 29V27L13 27H11ZM11 21H13C13 19.8954 12.1046 19 11 19V21ZM3 19C3 20.1046 3.89543 21 5 21V19V19H3ZM5 11C3.89543 11 3 11.8954 3 13H5V13V11ZM11 11V13C12.1046 13 13 12.1046 13 11H11ZM19 5V5H21C21 3.89543 20.1046 3 19 3V5ZM13 3C11.8954 3 11 3.89543 11 5H13V5V3Z" fill="#EBEBEB" mask="url(#path-1-inside-1_78_19677)"/>
<path fill-rule="evenodd" clip-rule="evenodd" d="M20 5C20 4.44772 19.5523 4 19 4H13C12.4477 4 12 4.44772 12 5V11C12 11.5523 11.5523 12 11 12H5C4.44772 12 4 12.4477 4 13H28C28 12.4477 27.5523 12 27 12H21C20.4477 12 20 11.5523 20 11V5ZM13.6667 9L16.0001 5.5L18.3335 9H13.6667Z" fill="#EBEBEB"/>
</svg>
