<svg width="32" height="32" viewBox="0 0 32 32" fill="none" xmlns="http://www.w3.org/2000/svg">
<circle cx="16" cy="16" r="12" fill="#EBEBEB"/>
<path d="M12 21.6364V10H16.4545C17.2955 10 17.9943 10.1326 18.5511 10.3977C19.1117 10.6591 19.5303 11.017 19.8068 11.4716C20.0871 11.9261 20.2273 12.4413 20.2273 13.017C20.2273 13.4905 20.1364 13.8958 19.9545 14.233C19.7727 14.5663 19.5284 14.8371 19.2216 15.0455C18.9148 15.2538 18.572 15.4034 18.1932 15.4943V15.608C18.6061 15.6307 19.0019 15.7576 19.3807 15.9886C19.7633 16.2159 20.0758 16.5379 20.3182 16.9545C20.5606 17.3712 20.6818 17.875 20.6818 18.4659C20.6818 19.0682 20.536 19.6098 20.2443 20.0909C19.9527 20.5682 19.5133 20.9451 18.9261 21.2216C18.339 21.4981 17.6004 21.6364 16.7102 21.6364H12ZM14.108 19.875H16.375C17.1402 19.875 17.6913 19.7292 18.0284 19.4375C18.3693 19.142 18.5398 18.7633 18.5398 18.3011C18.5398 17.9564 18.4545 17.6458 18.2841 17.3693C18.1136 17.089 17.8712 16.8693 17.5568 16.7102C17.2424 16.5473 16.8674 16.4659 16.4318 16.4659H14.108V19.875ZM14.108 14.9489H16.1932C16.5568 14.9489 16.8845 14.8826 17.1761 14.75C17.4678 14.6136 17.697 14.4223 17.8636 14.1761C18.0341 13.9261 18.1193 13.6307 18.1193 13.2898C18.1193 12.839 17.9602 12.4678 17.642 12.1761C17.3277 11.8845 16.8598 11.7386 16.2386 11.7386H14.108V14.9489Z" fill="#2D2D2D"/>
</svg>
