<svg width="32" height="32" viewBox="0 0 32 32" fill="none" xmlns="http://www.w3.org/2000/svg">
<path fill-rule="evenodd" clip-rule="evenodd" d="M20.4516 7.04305L22.0417 5.62964C25.3342 7.552 27.6287 10.9975 27.9589 15H25.9506C25.6037 11.5053 23.4575 8.53988 20.4516 7.04305ZM13.1941 8.50591L16 11L18.8059 8.50591C21.8401 9.64248 24 12.569 24 16C24 20.4183 20.4183 24 16 24C11.5817 24 8 20.4183 8 16C8 12.569 10.1599 9.64248 13.1941 8.50591ZM9.95832 5.62964L11.5484 7.04305C8.54248 8.53988 6.39635 11.5053 6.04938 15H4.04108C4.37128 10.9975 6.66576 7.552 9.95832 5.62964ZM25.9506 17H27.9589C27.478 22.8298 22.8298 27.478 17 27.959V25.9507C21.7244 25.4816 25.4816 21.7244 25.9506 17ZM15 25.9507V27.959C9.1702 27.478 4.52203 22.8298 4.04108 17H6.04938C6.51845 21.7244 10.2756 25.4816 15 25.9507Z" fill="#EBEBEB"/>
<path d="M13.5 20.5V11.5H15.4028V18.9312H19.2612V20.5H13.5Z" fill="#2D2D2D"/>
</svg>
