<svg width="32" height="32" viewBox="0 0 32 32" fill="none" xmlns="http://www.w3.org/2000/svg">
<path fill-rule="evenodd" clip-rule="evenodd" d="M25.9506 14.9999C25.4816 10.2755 21.7244 6.51838 17 6.04932V4.04102C22.8298 4.52196 27.478 9.17014 27.9589 14.9999H25.9506ZM4.04108 14.9999C4.52202 9.17015 9.1702 4.52197 15 4.04102V6.04932C10.2756 6.51839 6.51845 10.2755 6.04938 14.9999H4.04108ZM27.9589 16.9999H25.9506C25.4816 21.7244 21.7244 25.4815 17 25.9506V27.9589C22.8298 27.4779 27.478 22.8297 27.9589 16.9999ZM15 27.9589V25.9506C10.2756 25.4815 6.51845 21.7244 6.04938 16.9999H4.04108C4.52203 22.8297 9.1702 27.4779 15 27.9589ZM24 15.9999C24 20.4182 20.4183 23.9999 16 23.9999C11.5817 23.9999 8 20.4182 8 15.9999C8 11.5817 11.5817 7.99994 16 7.99994C20.4183 7.99994 24 11.5817 24 15.9999Z" fill="#EBEBEB"/>
<path d="M12.7 20.7827V11.4H16.4018C17.1103 11.4 17.7151 11.5268 18.216 11.7803C18.7199 12.0307 19.1032 12.3865 19.3659 12.8477C19.6316 13.3059 19.7645 13.845 19.7645 14.465C19.7645 15.088 19.6301 15.6241 19.3613 16.073C19.0926 16.519 18.7031 16.861 18.1931 17.0993C17.6861 17.3375 17.0722 17.4566 16.3514 17.4566H13.8728V15.8623H16.0307C16.4094 15.8623 16.724 15.8104 16.9744 15.7065C17.2249 15.6027 17.4112 15.4469 17.5334 15.2392C17.6586 15.0315 17.7212 14.7734 17.7212 14.465C17.7212 14.1534 17.6586 13.8908 17.5334 13.677C17.4112 13.4632 17.2233 13.3013 16.9698 13.1913C16.7194 13.0783 16.4033 13.0218 16.0215 13.0218H14.6837V20.7827H12.7ZM17.767 16.5128L20.0989 20.7827H17.909L15.6275 16.5128H17.767Z" fill="#2D2D2D"/>
</svg>
