<svg width="32" height="32" viewBox="0 0 32 32" fill="none" xmlns="http://www.w3.org/2000/svg">
<path d="M28 16C28 9.37258 22.6274 4 16 4H8C5.79086 4 4 5.79086 4 8V28H28V16Z" fill="#EBEBEB"/>
<path d="M7.03409 22.6364V21.3239L13 12.767H7V11H15.6136V12.3125L9.65341 20.8693H15.6477V22.6364H7.03409Z" fill="#2D2D2D"/>
<path d="M17.7447 22.6364V12.4545H21.7618C22.5307 12.4545 23.187 12.5921 23.7305 12.8672C24.2774 13.139 24.6933 13.5251 24.9784 14.0256C25.2667 14.5227 25.4109 15.1077 25.4109 15.7805C25.4109 16.4567 25.2651 17.0384 24.9734 17.5256C24.6817 18.0095 24.2592 18.3807 23.7057 18.6392C23.1555 18.8977 22.4893 19.027 21.7071 19.027H19.0174V17.2969H21.3591C21.77 17.2969 22.1114 17.2405 22.3832 17.1278C22.655 17.0152 22.8572 16.8461 22.9897 16.6207C23.1256 16.3954 23.1936 16.1153 23.1936 15.7805C23.1936 15.4425 23.1256 15.1574 22.9897 14.9254C22.8572 14.6934 22.6533 14.5178 22.3782 14.3984C22.1065 14.2758 21.7634 14.2145 21.3491 14.2145H19.8974V22.6364H17.7447ZM23.2433 18.0028L25.7738 22.6364H23.3974L20.9216 18.0028H23.2433Z" fill="#2D2D2D"/>
</svg>
