<svg width="32" height="32" viewBox="0 0 32 32" fill="none" xmlns="http://www.w3.org/2000/svg">
<path fill-rule="evenodd" clip-rule="evenodd" d="M25.9506 14.9999C25.4816 10.2755 21.7244 6.51838 17 6.04932V4.04102C22.8298 4.52196 27.478 9.17014 27.9589 14.9999H25.9506ZM4.04108 14.9999C4.52202 9.17015 9.1702 4.52197 15 4.04102V6.04932C10.2756 6.51839 6.51845 10.2755 6.04938 14.9999H4.04108ZM27.9589 16.9999H25.9506C25.4816 21.7244 21.7244 25.4815 17 25.9506V27.9589C22.8298 27.4779 27.478 22.8297 27.9589 16.9999ZM15 27.9589V25.9506C10.2756 25.4815 6.51845 21.7244 6.04938 16.9999H4.04108C4.52203 22.8297 9.1702 27.4779 15 27.9589ZM24 15.9999C24 20.4182 20.4183 23.9999 16 23.9999C11.5817 23.9999 8 20.4182 8 15.9999C8 11.5817 11.5817 7.99994 16 7.99994C20.4183 7.99994 24 11.5817 24 15.9999Z" fill="#2D2D2D"/>
<path d="M13.5 20.5V11.5H15.4028V18.9312H19.2612V20.5H13.5Z" fill="#EBEBEB"/>
</svg>
