<svg width="32" height="32" viewBox="0 0 32 32" fill="none" xmlns="http://www.w3.org/2000/svg">
<path fill-rule="evenodd" clip-rule="evenodd" d="M20.4516 7.04305L22.0417 5.62964C25.3342 7.552 27.6287 10.9975 27.9589 15H25.9506C25.6037 11.5053 23.4575 8.53988 20.4516 7.04305ZM13.1941 8.50591L16 11L18.8059 8.50591C21.8401 9.64248 24 12.569 24 16C24 20.4183 20.4183 24 16 24C11.5817 24 8 20.4183 8 16C8 12.569 10.1599 9.64248 13.1941 8.50591ZM9.95832 5.62964L11.5484 7.04305C8.54248 8.53988 6.39635 11.5053 6.04938 15H4.04108C4.37128 10.9975 6.66576 7.552 9.95832 5.62964ZM25.9506 17H27.9589C27.478 22.8298 22.8298 27.478 17 27.959V25.9507C21.7244 25.4816 25.4816 21.7244 25.9506 17ZM15 25.9507V27.959C9.1702 27.478 4.52203 22.8298 4.04108 17H6.04938C6.51845 21.7244 10.2756 25.4816 15 25.9507Z" fill="#2D2D2D"/>
<path d="M12.7 20.7827V11.4H16.4018C17.1104 11.4 17.7151 11.5268 18.216 11.7803C18.7199 12.0307 19.1033 12.3865 19.3659 12.8477C19.6316 13.3059 19.7645 13.845 19.7645 14.465C19.7645 15.088 19.6301 15.6241 19.3613 16.073C19.0926 16.519 18.7031 16.861 18.1931 17.0993C17.6861 17.3375 17.0722 17.4566 16.3514 17.4566H13.8728V15.8623H16.0307C16.4094 15.8623 16.724 15.8104 16.9744 15.7065C17.2249 15.6027 17.4112 15.4469 17.5334 15.2392C17.6586 15.0315 17.7212 14.7734 17.7212 14.465C17.7212 14.1534 17.6586 13.8908 17.5334 13.677C17.4112 13.4632 17.2234 13.3013 16.9699 13.1913C16.7194 13.0783 16.4033 13.0218 16.0215 13.0218H14.6838V20.7827H12.7ZM17.767 16.5128L20.0989 20.7827H17.909L15.6275 16.5128H17.767Z" fill="#EBEBEB"/>
</svg>
