<svg width="32" height="32" viewBox="0 0 32 32" fill="none" xmlns="http://www.w3.org/2000/svg">
<path d="M4 13C4 9.68629 6.68629 7 10 7H28V25H10C6.68629 25 4 22.3137 4 19V13Z" fill="#2D2D2D"/>
<path d="M14.7443 13.358C14.6913 12.8617 14.4678 12.4754 14.0739 12.1989C13.6837 11.9223 13.1761 11.7841 12.5511 11.7841C12.1117 11.7841 11.7348 11.8504 11.4205 11.983C11.1061 12.1155 10.8655 12.2955 10.6989 12.5227C10.5322 12.75 10.447 13.0095 10.4432 13.3011C10.4432 13.5436 10.4981 13.7538 10.608 13.9318C10.7216 14.1098 10.875 14.2614 11.0682 14.3864C11.2614 14.5076 11.4754 14.6098 11.7102 14.6932C11.9451 14.7765 12.1818 14.8466 12.4205 14.9034L13.5114 15.1761C13.9508 15.2784 14.3731 15.4167 14.7784 15.5909C15.1875 15.7652 15.553 15.9848 15.875 16.25C16.2008 16.5152 16.4583 16.8352 16.6477 17.2102C16.8371 17.5852 16.9318 18.0246 16.9318 18.5284C16.9318 19.2102 16.7576 19.8106 16.4091 20.3295C16.0606 20.8447 15.5568 21.2481 14.8977 21.5398C14.2424 21.8277 13.4489 21.9716 12.517 21.9716C11.6117 21.9716 10.8258 21.8314 10.1591 21.5511C9.49621 21.2708 8.97727 20.8617 8.60227 20.3239C8.23106 19.786 8.0303 19.1307 8 18.358H10.0739C10.1042 18.7633 10.2292 19.1004 10.4489 19.3693C10.6686 19.6383 10.9545 19.839 11.3068 19.9716C11.6629 20.1042 12.0606 20.1705 12.5 20.1705C12.9583 20.1705 13.3598 20.1023 13.7045 19.9659C14.053 19.8258 14.3258 19.6326 14.5227 19.3864C14.7197 19.1364 14.8201 18.8447 14.8239 18.5114C14.8201 18.2083 14.7311 17.9583 14.5568 17.7614C14.3826 17.5606 14.1383 17.3939 13.8239 17.2614C13.5133 17.125 13.1496 17.0038 12.733 16.8977L11.4091 16.5568C10.4508 16.3106 9.69318 15.9375 9.13636 15.4375C8.58333 14.9337 8.30682 14.2652 8.30682 13.4318C8.30682 12.7462 8.49242 12.1458 8.86364 11.6307C9.23864 11.1155 9.74811 10.7159 10.392 10.4318C11.036 10.1439 11.7652 10 12.5795 10C13.4053 10 14.1288 10.1439 14.75 10.4318C15.375 10.7159 15.8655 11.1117 16.2216 11.6193C16.5777 12.1231 16.7614 12.7027 16.7727 13.358H14.7443Z" fill="#EBEBEB"/>
<path d="M19.0283 21.7955V11.6136H21.181V20.0206H25.5461V21.7955H19.0283Z" fill="#EBEBEB"/>
</svg>
