<svg width="32" height="32" viewBox="0 0 32 32" fill="none" xmlns="http://www.w3.org/2000/svg">
<path d="M28 13C28 9.68629 25.3137 7 22 7H4V25H22C25.3137 25 28 22.3137 28 19V13Z" fill="#2D2D2D"/>
<path d="M13.2443 13.358C13.1913 12.8617 12.9678 12.4754 12.5739 12.1989C12.1837 11.9223 11.6761 11.7841 11.0511 11.7841C10.6117 11.7841 10.2348 11.8504 9.92045 11.983C9.60606 12.1155 9.36553 12.2955 9.19886 12.5227C9.0322 12.75 8.94697 13.0095 8.94318 13.3011C8.94318 13.5436 8.99811 13.7538 9.10795 13.9318C9.22159 14.1098 9.375 14.2614 9.56818 14.3864C9.76136 14.5076 9.97538 14.6098 10.2102 14.6932C10.4451 14.7765 10.6818 14.8466 10.9205 14.9034L12.0114 15.1761C12.4508 15.2784 12.8731 15.4167 13.2784 15.5909C13.6875 15.7652 14.053 15.9848 14.375 16.25C14.7008 16.5152 14.9583 16.8352 15.1477 17.2102C15.3371 17.5852 15.4318 18.0246 15.4318 18.5284C15.4318 19.2102 15.2576 19.8106 14.9091 20.3295C14.5606 20.8447 14.0568 21.2481 13.3977 21.5398C12.7424 21.8277 11.9489 21.9716 11.017 21.9716C10.1117 21.9716 9.32576 21.8314 8.65909 21.5511C7.99621 21.2708 7.47727 20.8617 7.10227 20.3239C6.73106 19.786 6.5303 19.1307 6.5 18.358H8.57386C8.60417 18.7633 8.72917 19.1004 8.94886 19.3693C9.16856 19.6383 9.45455 19.839 9.80682 19.9716C10.1629 20.1042 10.5606 20.1705 11 20.1705C11.4583 20.1705 11.8598 20.1023 12.2045 19.9659C12.553 19.8258 12.8258 19.6326 13.0227 19.3864C13.2197 19.1364 13.3201 18.8447 13.3239 18.5114C13.3201 18.2083 13.2311 17.9583 13.0568 17.7614C12.8826 17.5606 12.6383 17.3939 12.3239 17.2614C12.0133 17.125 11.6496 17.0038 11.233 16.8977L9.90909 16.5568C8.95076 16.3106 8.19318 15.9375 7.63636 15.4375C7.08333 14.9337 6.80682 14.2652 6.80682 13.4318C6.80682 12.7462 6.99242 12.1458 7.36364 11.6307C7.73864 11.1155 8.24811 10.7159 8.89205 10.4318C9.53598 10.1439 10.2652 10 11.0795 10C11.9053 10 12.6288 10.1439 13.25 10.4318C13.875 10.7159 14.3655 11.1117 14.7216 11.6193C15.0777 12.1231 15.2614 12.7027 15.2727 13.358H13.2443Z" fill="#EBEBEB"/>
<path d="M17.3683 21.7955V11.6136H21.3853C22.1543 11.6136 22.8105 11.7512 23.3541 12.0263C23.901 12.2981 24.3169 12.6842 24.602 13.1847C24.8903 13.6818 25.0345 14.2668 25.0345 14.9396C25.0345 15.6158 24.8887 16.1974 24.597 16.6847C24.3053 17.1686 23.8827 17.5398 23.3292 17.7983C22.779 18.0568 22.1129 18.1861 21.3307 18.1861H18.641V16.456H20.9826C21.3936 16.456 21.735 16.3996 22.0068 16.2869C22.2786 16.1742 22.4807 16.0052 22.6133 15.7798C22.7492 15.5545 22.8172 15.2744 22.8172 14.9396C22.8172 14.6016 22.7492 14.3165 22.6133 14.0845C22.4807 13.8525 22.2769 13.6768 22.0018 13.5575C21.73 13.4349 21.387 13.3736 20.9727 13.3736H19.521V21.7955H17.3683ZM22.8669 17.1619L25.3974 21.7955H23.021L20.5451 17.1619H22.8669Z" fill="#EBEBEB"/>
</svg>
