<svg width="64" height="64" viewBox="0 0 64 64" fill="none" xmlns="http://www.w3.org/2000/svg">
<path fill-rule="evenodd" clip-rule="evenodd" d="M18.8821 27.0983L13 32L18.8821 36.9018C18.3118 35.3762 18 33.7245 18 32C18 30.2755 18.3118 28.6238 18.8821 27.0983Z" fill="#2D2D2D"/>
<path fill-rule="evenodd" clip-rule="evenodd" d="M27.0983 45.1179L32 51L36.9018 45.1179C35.3762 45.6882 33.7245 46 32 46C30.2755 46 28.6238 45.6882 27.0983 45.1179Z" fill="#2D2D2D"/>
<path fill-rule="evenodd" clip-rule="evenodd" d="M45.1179 36.9018C45.6882 35.3762 46 33.7245 46 32C46 30.2755 45.6882 28.6238 45.1179 27.0983L51 32L45.1179 36.9018Z" fill="#2D2D2D"/>
<path fill-rule="evenodd" clip-rule="evenodd" d="M27.0983 18.8821C28.6238 18.3118 30.2755 18 32 18C33.7245 18 35.3762 18.3118 36.9018 18.8821L32 13L27.0983 18.8821Z" fill="#2D2D2D"/>
</svg>
