<svg width="32" height="32" viewBox="0 0 32 32" fill="none" xmlns="http://www.w3.org/2000/svg">
<path fill-rule="evenodd" clip-rule="evenodd" d="M20 5C20 4.44772 19.5523 4 19 4H13C12.4477 4 12 4.44772 12 5V11C12 11.5523 11.5523 12 11 12H5C4.44772 12 4 12.4477 4 13V19C4 19.5523 4.44772 20 5 20H11C11.5523 20 12 20.4477 12 21V27C12 27.5523 12.4477 28 13 28H19C19.5523 28 20 27.5523 20 27V21C20 20.4477 20.4477 20 21 20H27C27.5523 20 28 19.5523 28 19V13C28 12.4477 27.5523 12 27 12H21C20.4477 12 20 11.5523 20 11V5Z" fill="#EBEBEB"/>
<path d="M13.6667 9L16.0001 5.5L18.3334 9H13.6667Z" fill="#2D2D2D"/>
<path d="M23 13.6665L26.5 15.9998L23 18.3332V13.6665Z" fill="#2D2D2D"/>
<path d="M9 18.3335L5.5 16.0002L9 13.6668V18.3335Z" fill="#2D2D2D"/>
<path d="M13.6667 23L16 26.5L18.3333 23H13.6667Z" fill="#2D2D2D"/>
</svg>
