<svg width="32" height="32" viewBox="0 0 32 32" fill="none" xmlns="http://www.w3.org/2000/svg">
<path fill-rule="evenodd" clip-rule="evenodd" d="M16 7C22.6274 7 28 12.3726 28 19V25H4V7H16ZM11 10V21.6364H13.108V17.375H15.253L17.5398 21.6364H19.892L17.3752 17.0296C17.4509 16.999 17.5247 16.9664 17.5966 16.9318C18.2102 16.6326 18.6742 16.2102 18.9886 15.6648C19.3068 15.1155 19.4659 14.4678 19.4659 13.7216C19.4659 12.9792 19.3087 12.3295 18.9943 11.7727C18.6837 11.2121 18.2235 10.7765 17.6136 10.4659C17.0076 10.1553 16.2576 10 15.3636 10H11ZM13.108 15.625H15.0511C15.5739 15.625 16.0019 15.553 16.3352 15.4091C16.6686 15.2614 16.9148 15.0473 17.0739 14.767C17.2367 14.483 17.3182 14.1345 17.3182 13.7216C17.3182 13.3087 17.2367 12.9564 17.0739 12.6648C16.911 12.3693 16.6629 12.1458 16.3295 11.9943C15.9962 11.839 15.5663 11.7614 15.0398 11.7614H13.108V15.625Z" fill="#2D2D2D"/>
</svg>
