<svg width="32" height="32" viewBox="0 0 32 32" fill="none" xmlns="http://www.w3.org/2000/svg">
<path fill-rule="evenodd" clip-rule="evenodd" d="M17 6.04932C21.7244 6.51838 25.4816 10.2755 25.9506 14.9999H27.9589C27.478 9.17014 22.8298 4.52196 17 4.04102V6.04932ZM15 4.04102C9.1702 4.52197 4.52202 9.17015 4.04108 14.9999H6.04938C6.51845 10.2755 10.2756 6.51839 15 6.04932V4.04102ZM25.9506 16.9999H27.9589C27.478 22.8297 22.8298 27.4779 17 27.9589V25.9506C21.7244 25.4815 25.4816 21.7244 25.9506 16.9999ZM15 25.9506V27.9589C9.1702 27.4779 4.52203 22.8297 4.04108 16.9999H6.04938C6.51845 21.7244 10.2756 25.4815 15 25.9506ZM16 23.9999C20.4183 23.9999 24 20.4182 24 15.9999C24 11.5817 20.4183 7.99994 16 7.99994C11.5817 7.99994 8 11.5817 8 15.9999C8 20.4182 11.5817 23.9999 16 23.9999ZM12.7 11.4V20.7826H14.6837V17.4565H16.1318L17.909 20.7826H20.0989L18.1082 17.1375C18.1368 17.1251 18.1651 17.1123 18.1931 17.0992C18.7031 16.861 19.0926 16.5189 19.3613 16.073C19.6301 15.624 19.7645 15.088 19.7645 14.4649C19.7645 13.8449 19.6316 13.3058 19.3659 12.8477C19.1032 12.3865 18.7199 12.0307 18.216 11.7802C17.7151 11.5267 17.1103 11.4 16.4018 11.4H12.7ZM14.6837 15.8622H16.0307C16.4094 15.8622 16.724 15.8103 16.9744 15.7065C17.2249 15.6026 17.4112 15.4468 17.5334 15.2392C17.6586 15.0315 17.7212 14.7734 17.7212 14.4649C17.7212 14.1534 17.6586 13.8907 17.5334 13.6769C17.4112 13.4631 17.2233 13.3012 16.9698 13.1913C16.7194 13.0783 16.4033 13.0218 16.0215 13.0218H14.6837V15.8622Z" fill="#2D2D2D"/>
</svg>
