<svg width="32" height="32" viewBox="0 0 32 32" fill="none" xmlns="http://www.w3.org/2000/svg">
<path fill-rule="evenodd" clip-rule="evenodd" d="M16 4C22.6274 4 28 9.37258 28 16V28H4V8C4 5.79086 5.79086 4 8 4H16ZM7.03409 21.3239V22.6364H15.6477V20.8693H9.65341L15.6136 12.3125V11H7V12.767H13L7.03409 21.3239ZM17.7447 12.4545V22.6364H19.8974V19.027H21.4688L23.3974 22.6364H25.7738L23.6136 18.6808C23.6446 18.6673 23.6753 18.6535 23.7057 18.6392C24.2592 18.3807 24.6817 18.0095 24.9734 17.5256C25.2651 17.0384 25.4109 16.4567 25.4109 15.7805C25.4109 15.1077 25.2667 14.5227 24.9784 14.0256C24.6933 13.5251 24.2774 13.139 23.7305 12.8672C23.187 12.5921 22.5307 12.4545 21.7618 12.4545H17.7447ZM19.8974 17.2969H21.3591C21.77 17.2969 22.1114 17.2405 22.3832 17.1278C22.655 17.0152 22.8572 16.8461 22.9897 16.6207C23.1256 16.3954 23.1936 16.1153 23.1936 15.7805C23.1936 15.4425 23.1256 15.1574 22.9897 14.9254C22.8572 14.6934 22.6533 14.5178 22.3782 14.3984C22.1065 14.2758 21.7634 14.2145 21.3491 14.2145H19.8974V17.2969Z" fill="#2D2D2D"/>
</svg>
